<svg width="24" height="24" viewBox="0 0 24 24" fill="none" xmlns="http://www.w3.org/2000/svg">
<path d="M21.3461 5.40955C21.3293 4.251 20.9767 3.09245 19.9524 2.43762C18.9618 1.79957 17.6353 1.81636 16.8461 2.77343C16.779 2.85738 16.6447 2.9917 16.695 3.09245C16.7286 3.20998 16.9805 3.1764 17.0812 3.22677C17.2659 3.31073 17.3331 3.49542 17.3163 3.68012C17.3163 3.8984 17.2995 6.01402 17.2995 8.91879C14.7305 8.902 12.1783 8.88521 9.60933 8.86842C9.55896 8.23038 9.54217 7.52517 9.59254 6.73601C9.62612 6.01402 9.72687 5.30881 9.86119 4.6036C9.92835 4.30137 9.99552 3.98235 10.0795 3.68012C10.1634 3.34431 10.4153 2.94133 10.3817 2.58873C10.3817 2.53836 10.3649 2.48799 10.3313 2.45441C10.2642 2.37045 10.1298 2.38724 10.0291 2.40403C9.37426 2.57194 8.73621 2.92454 8.24928 3.37789C8.09816 3.51222 7.67839 3.91519 7.309 4.57002C6.31834 6.33304 6.25118 8.83484 6.25118 8.83484C6.20081 10.4467 6.13365 13.7377 7.86309 17.1294C7.86309 17.1294 9.07203 19.5137 10.8015 20.1013C11.1373 20.2189 11.238 20.1349 11.2716 20.1013C11.4059 19.9334 11.1205 19.6312 11.0365 19.4969C10.8854 19.2618 10.7511 18.9932 10.6336 18.7245C10.3985 18.1704 10.2306 17.5995 10.1131 17.0119C9.76045 15.2321 9.52538 13.4187 9.57575 11.6053H17.3331C17.3331 13.8888 17.3331 16.1723 17.3331 18.4559C17.3331 18.9092 17.5178 19.3458 17.9375 19.564C18.1894 19.6984 18.4748 19.7319 18.7603 19.7655C19.2472 19.8327 19.7509 19.8663 20.2379 19.7655C20.5233 19.7152 20.8088 19.6144 21.027 19.4129C21.3629 19.0939 21.3796 18.6573 21.3796 18.2376C21.3796 14.7955 21.4132 11.3534 21.4132 7.92815C21.3629 7.10541 21.3461 6.24908 21.3461 5.40955Z" fill="#C4B062"/>
<path d="M10.7174 21.0093C7.59434 20.0858 6.36861 16.778 5.69698 13.9068C5.54587 13.2856 5.41154 12.6643 5.32759 12.0262C5.07573 10.0953 5.09252 7.96289 5.71378 6.09912C5.24364 6.19987 5.02536 6.61963 4.73991 6.95545C3.71568 8.18117 3.63173 9.59159 3.59815 11.0188C3.48061 14.3434 4.68954 16.6941 4.95819 17.2146C5.56266 18.3564 6.23429 19.1119 6.41898 19.3134C7.1074 20.0858 7.81261 20.6231 8.34992 20.9757C7.93015 20.875 7.32568 20.6735 6.67085 20.2705C6.06638 19.9011 5.64661 19.4981 5.36117 19.1791C4.95819 18.6586 4.67275 18.2052 4.48805 17.8862C3.98433 17.0299 3.36307 15.9553 3.06084 14.5113C2.97689 14.1083 2.90973 13.6885 2.75861 13.6717C2.52354 13.6549 2.27168 14.4609 2.22131 14.6456C2.03661 15.2165 1.98624 15.737 2.00303 16.0224C2.01982 17.1138 2.82577 19.2295 4.77349 20.6567C4.77349 20.6567 6.48615 21.916 9.39094 21.9999C9.50848 21.9999 10.2137 21.9832 10.7342 21.6138C11.0028 21.4291 11.1708 21.1436 10.7174 21.0093Z" fill="#C4B062"/>
</svg>
