<svg width="24" height="24" viewBox="0 0 24 24" fill="none" xmlns="http://www.w3.org/2000/svg">
<path fill-rule="evenodd" clip-rule="evenodd" d="M20.6505 12.6762C20.6505 15.8258 19.9601 18.1729 18.5804 19.7023C17.2007 21.2316 15.0689 21.996 12.195 21.996C9.50978 21.996 7.47262 21.2314 6.08347 19.7023C4.69433 18.1732 3.99984 15.867 4 12.7838V2.43949C4.00032 2.32308 4.04481 2.21152 4.12375 2.12918C4.2027 2.04684 4.30968 2.0004 4.42136 2H9.29016C9.40188 2.00033 9.50893 2.04674 9.58792 2.12909C9.66692 2.21144 9.71144 2.32303 9.71176 2.43949V13.0099C9.71176 14.2689 9.93519 15.2377 10.3898 15.9213C10.6155 16.2331 10.9064 16.4871 11.2405 16.6639C11.5746 16.8407 11.943 16.9357 12.3177 16.9415C12.6923 16.9474 13.0633 16.864 13.4024 16.6977C13.7414 16.5314 14.0396 16.2867 14.2741 15.982C14.7185 15.3407 14.94 14.3955 14.9385 13.1466V11.1671H20.6505V12.6762Z" fill="#254A86"/>
<path fill-rule="evenodd" clip-rule="evenodd" d="M20.2099 10.0109H14.9399V2.46025C14.9403 2.33829 14.9869 2.22142 15.0696 2.13517C15.1523 2.04893 15.2645 2.00033 15.3815 2H16.1703C16.1711 3.23809 16.6435 4.42517 17.4836 5.30033C18.3237 6.17548 19.4628 6.66709 20.6505 6.66709H20.6517V10.0109H20.2099Z" fill="#254A86"/>
<path fill-rule="evenodd" clip-rule="evenodd" d="M17.2925 2H20.2099C20.3269 2.00033 20.439 2.04893 20.5218 2.13517C20.6045 2.22142 20.6511 2.33829 20.6514 2.46025V5.50532C19.7606 5.50532 18.9062 5.1364 18.2763 4.47974C17.6464 3.82308 17.2925 2.93246 17.2925 2.0038V2Z" fill="#F4821F"/>
</svg>
