<svg width="48" height="48" viewBox="0 0 48 48" fill="none" xmlns="http://www.w3.org/2000/svg">
<g id="payment_card_outline_28">
<path id="&#226;&#134;&#179; Icon Color" d="M33.5832 6.85693C37.404 6.85693 38.7895 7.25476 40.1864 8.00179C41.5832 8.74882 42.6794 9.84505 43.4265 11.2419C44.1735 12.6387 44.5713 14.0242 44.5713 17.845V30.1546C44.5713 33.9754 44.1735 35.3609 43.4265 36.7577C42.6794 38.1545 41.5832 39.2508 40.1864 39.9978C38.7895 40.7448 37.404 41.1426 33.5832 41.1426H14.4165C10.5958 41.1426 9.21024 40.7448 7.81341 39.9978C6.41659 39.2508 5.32035 38.1545 4.57332 36.7577C3.82629 35.3609 3.42847 33.9754 3.42847 30.1546V17.845C3.42847 14.0242 3.82629 12.6387 4.57332 11.2419C5.32035 9.84505 6.41659 8.74882 7.81341 8.00179C9.21024 7.25476 10.5958 6.85693 14.4165 6.85693H33.5832ZM41.141 22.2855H6.85532L6.85704 31.1212C6.85704 33.4137 7.09573 34.245 7.54395 35.0831C7.99217 35.9212 8.64991 36.5789 9.48801 37.0272C10.2737 37.4474 11.0535 37.6834 13.0368 37.7113L13.4499 37.7141H34.5499C36.8424 37.7141 37.6737 37.4754 38.5118 37.0272C39.3499 36.5789 40.0076 35.9212 40.4558 35.0831C40.876 34.2974 41.1121 33.5176 41.14 31.5343L41.1427 31.1212L41.141 22.2855ZM14.992 27.4284C15.6999 27.4284 15.9864 27.5079 16.2658 27.6573C16.5451 27.8067 16.7644 28.026 16.9138 28.3054C17.0632 28.5847 17.1428 28.8712 17.1428 29.5791V30.4205C17.1428 31.1284 17.0632 31.4149 16.9138 31.6942C16.7644 31.9736 16.5451 32.1928 16.2658 32.3422C15.9864 32.4917 15.6999 32.5712 14.992 32.5712H14.1506C13.4427 32.5712 13.1562 32.4917 12.8769 32.3422C12.5975 32.1928 12.3783 31.9736 12.2289 31.6942C12.0795 31.4149 11.9999 31.1284 11.9999 30.4205V29.5791C11.9999 28.8712 12.0795 28.5847 12.2289 28.3054C12.3783 28.026 12.5975 27.8067 12.8769 27.6573C13.1562 27.5079 13.4427 27.4284 14.1506 27.4284H14.992ZM34.5499 10.2855H13.4499C11.1574 10.2855 10.3261 10.5242 9.48801 10.9724C8.64991 11.4206 7.99217 12.0784 7.54395 12.9165C7.12375 13.7022 6.88769 14.4819 6.85983 16.4653L6.85704 16.8784L6.85532 17.1426H41.141L41.1427 16.8784C41.1427 14.5859 40.9041 13.7546 40.4558 12.9165C40.0076 12.0784 39.3499 11.4206 38.5118 10.9724C37.7261 10.5522 36.9463 10.3162 34.963 10.2883L34.5499 10.2855Z" fill="#4BB34B"/>
</g>
</svg>
