<svg width="103" height="115" viewBox="0 0 103 115" fill="none" xmlns="http://www.w3.org/2000/svg">
<path id="Vector" opacity="0.08" fill-rule="evenodd" clip-rule="evenodd" d="M2.77127 30.1888C6.8743 21.8673 17.0727 19.1982 25.0753 14.5114C34.0658 9.24604 42.9899 -3.03497 52.5651 1.02643C63.1366 5.51044 58.8146 23.115 66.1646 31.9398C71.7047 38.5915 82.836 37.5884 88.4822 44.1502C95.8678 52.7335 104.257 63.0771 102.614 74.2999C100.977 85.4777 89.7304 92.5982 80.4468 99.0367C71.8664 104.987 61.8701 107.49 51.66 109.638C40.7629 111.93 27.684 118.938 19.022 111.959C9.76913 104.504 15.1296 89.1838 12.0221 77.7031C10.0503 70.4181 5.58153 64.3825 4.13898 56.9733C2.39574 48.0196 -1.26687 38.3787 2.77127 30.1888Z" fill="#3F8AE0"/>
</svg>
