<svg width="48" height="48" viewBox="0 0 48 48" fill="none" xmlns="http://www.w3.org/2000/svg">
<g id="voice_outline_28">
<path id="&#226;&#134;&#179; Icon Color" d="M39.4286 20.5716C40.3754 20.5716 41.1429 21.3391 41.1429 22.2859C41.1429 31.1744 34.3781 38.4829 25.7162 39.3439L25.7143 42.8573C25.7143 43.8041 24.9468 44.5716 24 44.5716C23.0533 44.5716 22.2857 43.8041 22.2857 42.8573L22.2856 39.344C13.6228 38.4839 6.85718 31.175 6.85718 22.2859C6.85718 21.3391 7.62469 20.5716 8.57146 20.5716C9.51824 20.5716 10.2857 21.3391 10.2857 22.2859C10.2857 29.86 16.4258 36.0001 24 36.0001C31.5742 36.0001 37.7143 29.86 37.7143 22.2859C37.7143 21.3391 38.4818 20.5716 39.4286 20.5716ZM24 3.42871C29.6807 3.42871 34.2857 8.03378 34.2857 13.7144V22.2859C34.2857 27.9665 29.6807 32.5716 24 32.5716C18.3194 32.5716 13.7143 27.9665 13.7143 22.2859V13.7144C13.7143 8.03378 18.3194 3.42871 24 3.42871ZM24 6.85728C20.2129 6.85728 17.1429 9.92733 17.1429 13.7144V22.2859C17.1429 26.0729 20.2129 29.143 24 29.143C27.7871 29.143 30.8572 26.0729 30.8572 22.2859V13.7144C30.8572 9.92733 27.7871 6.85728 24 6.85728Z" fill="#3F8AE0"/>
</g>
</svg>
